<svg xmlns="http://www.w3.org/2000/svg" height="591pt" version="1.1" viewBox="1 -81 591.6 591" width="591pt">
<g id="surface1">
<path d="M 81.65625 61.597656 L 592 61.597656 L 592 306.5625 L 81.65625 306.5625 Z M 81.65625 61.597656 " style=" stroke:none;fill-rule:nonzero;fill:rgb(87.058824%,29.803922%,23.529412%);fill-opacity:1;" />
<path d="M 275.585938 306.5625 L 592 306.5625 L 592 61.597656 L 520.550781 61.597656 Z M 275.585938 306.5625 " style=" stroke:none;fill-rule:nonzero;fill:rgb(78.823529%,27.058824%,21.176471%);fill-opacity:1;" />
<path d="M 81.65625 429.042969 L 61.242188 429.042969 L 51.035156 398.425781 L 30.621094 398.425781 L 20.414062 429.042969 L 0 429.042969 L 0 0.355469 L 81.65625 0.355469 Z M 81.65625 429.042969 " style=" stroke:none;fill-rule:nonzero;fill:rgb(85.490196%,86.666667%,87.45098%);fill-opacity:1;" />
<path d="M 30.621094 194.285156 L 51.035156 194.285156 L 51.035156 214.699219 L 30.621094 214.699219 Z M 30.621094 194.285156 " style=" stroke:none;fill-rule:nonzero;fill:rgb(71.372549%,72.156863%,72.941176%);fill-opacity:1;" />
<path d="M 30.621094 235.113281 L 51.035156 235.113281 L 51.035156 255.527344 L 30.621094 255.527344 Z M 30.621094 235.113281 " style=" stroke:none;fill-rule:nonzero;fill:rgb(71.372549%,72.156863%,72.941176%);fill-opacity:1;" />
<path d="M 30.621094 153.457031 L 51.035156 153.457031 L 51.035156 173.871094 L 30.621094 173.871094 Z M 30.621094 153.457031 " style=" stroke:none;fill-rule:nonzero;fill:rgb(71.372549%,72.156863%,72.941176%);fill-opacity:1;" />
<path d="M 30.621094 112.632812 L 51.035156 112.632812 L 51.035156 133.042969 L 30.621094 133.042969 Z M 30.621094 112.632812 " style=" stroke:none;fill-rule:nonzero;fill:rgb(71.372549%,72.156863%,72.941176%);fill-opacity:1;" />
<path d="M 30.621094 71.804688 L 51.035156 71.804688 L 51.035156 92.21875 L 30.621094 92.21875 Z M 30.621094 71.804688 " style=" stroke:none;fill-rule:nonzero;fill:rgb(71.372549%,72.156863%,72.941176%);fill-opacity:1;" />
<path d="M 30.621094 30.976562 L 51.035156 30.976562 L 51.035156 51.390625 L 30.621094 51.390625 Z M 30.621094 30.976562 " style=" stroke:none;fill-rule:nonzero;fill:rgb(71.372549%,72.156863%,72.941176%);fill-opacity:1;" />
<path d="M 122.484375 306.5625 L 367.449219 306.5625 L 367.449219 367.804688 L 122.484375 367.804688 Z M 122.484375 306.5625 " style=" stroke:none;fill-rule:nonzero;fill:rgb(99.215686%,71.372549%,18.431373%);fill-opacity:1;" />
<path d="M 153.101562 337.183594 L 173.515625 337.183594 L 173.515625 367.804688 L 153.101562 367.804688 Z M 153.101562 337.183594 " style=" stroke:none;fill-rule:nonzero;fill:rgb(99.215686%,48.235294%,18.431373%);fill-opacity:1;" />
<path d="M 193.929688 337.183594 L 214.34375 337.183594 L 214.34375 367.804688 L 193.929688 367.804688 Z M 193.929688 337.183594 " style=" stroke:none;fill-rule:nonzero;fill:rgb(99.215686%,48.235294%,18.431373%);fill-opacity:1;" />
<path d="M 234.757812 337.183594 L 255.171875 337.183594 L 255.171875 367.804688 L 234.757812 367.804688 Z M 234.757812 337.183594 " style=" stroke:none;fill-rule:nonzero;fill:rgb(99.215686%,48.235294%,18.431373%);fill-opacity:1;" />
<path d="M 275.585938 337.183594 L 296 337.183594 L 296 367.804688 L 275.585938 367.804688 Z M 275.585938 337.183594 " style=" stroke:none;fill-rule:nonzero;fill:rgb(99.215686%,48.235294%,18.431373%);fill-opacity:1;" />
<path d="M 316.414062 337.183594 L 336.828125 337.183594 L 336.828125 367.804688 L 316.414062 367.804688 Z M 316.414062 337.183594 " style=" stroke:none;fill-rule:nonzero;fill:rgb(99.215686%,48.235294%,18.431373%);fill-opacity:1;" />
<path d="M 411.011719 173.871094 L 411.082031 173.871094 C 414.707031 167.5625 421.421875 163.675781 428.691406 163.664062 C 428.699219 143.691406 422.789062 124.15625 411.707031 107.527344 L 409.796875 104.667969 C 381.433594 111.417969 358.8125 132.78125 350.464844 160.714844 L 353.933594 160.492188 C 373.867188 159.214844 393.722656 163.878906 411.011719 173.871094 Z M 411.011719 173.871094 " style=" stroke:none;fill-rule:nonzero;fill:rgb(33.333333%,39.607843%,45.882353%);fill-opacity:1;" />
<path d="M 487.980469 128.042969 L 486.460938 131.105469 C 477.613281 149.007812 463.660156 163.890625 446.367188 173.871094 L 446.296875 173.871094 C 450.042969 180.128906 450.042969 187.949219 446.296875 194.203125 L 446.367188 194.203125 C 463.660156 204.1875 483.519531 208.832031 503.445312 207.542969 L 506.914062 207.320312 C 515.292969 179.382812 508.066406 149.101562 487.980469 127.960938 Z M 487.980469 128.042969 " style=" stroke:none;fill-rule:nonzero;fill:rgb(33.333333%,39.607843%,45.882353%);fill-opacity:1;" />
<path d="M 428.691406 204.492188 C 421.421875 204.484375 414.707031 200.59375 411.082031 194.285156 L 411.011719 194.285156 C 393.722656 204.269531 379.769531 219.148438 370.917969 237.042969 L 369.398438 240.105469 C 389.34375 261.40625 419.21875 270.328125 447.582031 263.4375 L 445.675781 260.578125 C 434.601562 243.972656 428.691406 224.457031 428.691406 204.492188 Z M 428.691406 204.492188 " style=" stroke:none;fill-rule:nonzero;fill:rgb(33.333333%,39.607843%,45.882353%);fill-opacity:1;" />
<path d="M 411.011719 194.285156 L 411.082031 194.285156 C 407.335938 188.027344 407.335938 180.210938 411.082031 173.953125 L 411.011719 173.953125 C 393.722656 163.972656 373.859375 159.328125 353.933594 160.613281 L 350.464844 160.839844 C 342.085938 188.773438 349.3125 219.058594 369.398438 240.195312 L 370.917969 237.136719 C 379.757812 219.199219 393.710938 204.300781 411.011719 194.285156 Z M 411.011719 194.285156 " style=" stroke:none;fill-rule:nonzero;fill:rgb(71.372549%,72.156863%,72.941176%);fill-opacity:1;" />
<path d="M 428.691406 163.664062 C 435.957031 163.675781 442.671875 167.5625 446.296875 173.871094 L 446.367188 173.871094 C 463.660156 163.890625 477.609375 149.007812 486.460938 131.117188 L 487.980469 128.054688 C 468.039062 106.753906 438.160156 97.832031 409.796875 104.71875 L 411.707031 107.578125 C 422.78125 124.183594 428.691406 143.699219 428.691406 163.664062 Z M 428.691406 163.664062 " style=" stroke:none;fill-rule:nonzero;fill:rgb(71.372549%,72.156863%,72.941176%);fill-opacity:1;" />
<path d="M 446.367188 194.285156 L 446.296875 194.285156 C 442.671875 200.59375 435.957031 204.484375 428.691406 204.492188 C 428.679688 224.46875 434.589844 244.003906 445.675781 260.632812 L 447.582031 263.488281 C 475.949219 256.742188 498.566406 235.378906 506.914062 207.441406 L 503.445312 207.667969 C 483.511719 208.941406 463.660156 204.277344 446.367188 194.285156 Z M 446.367188 194.285156 " style=" stroke:none;fill-rule:nonzero;fill:rgb(71.372549%,72.156863%,72.941176%);fill-opacity:1;" />
<path d="M 112.277344 92.21875 L 132.691406 92.21875 L 132.691406 112.632812 L 112.277344 112.632812 Z M 112.277344 92.21875 " style=" stroke:none;fill-rule:nonzero;fill:rgb(33.333333%,39.607843%,45.882353%);fill-opacity:1;" />
<path d="M 112.277344 255.527344 L 132.691406 255.527344 L 132.691406 275.941406 L 112.277344 275.941406 Z M 112.277344 255.527344 " style=" stroke:none;fill-rule:nonzero;fill:rgb(33.333333%,39.607843%,45.882353%);fill-opacity:1;" />
<path d="M 540.964844 92.21875 L 561.378906 92.21875 L 561.378906 112.632812 L 540.964844 112.632812 Z M 540.964844 92.21875 " style=" stroke:none;fill-rule:nonzero;fill:rgb(33.333333%,39.607843%,45.882353%);fill-opacity:1;" />
<path d="M 540.964844 255.527344 L 561.378906 255.527344 L 561.378906 275.941406 L 540.964844 275.941406 Z M 540.964844 255.527344 " style=" stroke:none;fill-rule:nonzero;fill:rgb(33.333333%,39.607843%,45.882353%);fill-opacity:1;" />
<path d="M 81.65625 0.355469 L 592 0.355469 L 592 61.597656 L 81.65625 61.597656 Z M 81.65625 0.355469 " style=" stroke:none;fill-rule:nonzero;fill:rgb(33.333333%,39.607843%,45.882353%);fill-opacity:1;" />
<path d="M 449.101562 184.078125 C 449.101562 195.355469 439.964844 204.492188 428.691406 204.492188 C 417.414062 204.492188 408.277344 195.355469 408.277344 184.078125 C 408.277344 172.804688 417.414062 163.664062 428.691406 163.664062 C 439.964844 163.664062 449.101562 172.804688 449.101562 184.078125 Z M 449.101562 184.078125 " style=" stroke:none;fill-rule:nonzero;fill:rgb(85.490196%,86.666667%,87.45098%);fill-opacity:1;" />
<path d="M 122.484375 306.5625 L 367.449219 306.5625 L 367.449219 326.976562 L 122.484375 326.976562 Z M 122.484375 306.5625 " style=" stroke:none;fill-rule:nonzero;fill:rgb(100%,63.529412%,18.823529%);fill-opacity:1;" />
</g>
</svg>